<svg xmlns="http://www.w3.org/2000/svg" width="221.283" height="143.998" viewBox="0 0 221.283 143.998"><defs><style>.a{fill:#efa500;}.b{fill:#7f961e;}.c{fill:#008cff;}.d{fill:#e26003;}</style></defs><g transform="translate(22.019 0)"><path class="a" d="M457.506,429.415s-3.355-25.027,22.418-35.278,40.1,6.6,45.795,17.732a59.363,59.363,0,0,1,5.884,17.679H518.077s-6.976-26.465-26.572-26.039c-16.747.373-23.03,20.128-22.738,26.172Z" transform="translate(-388.368 -353.827)"/><path class="b" d="M684.909,412.932s-2.13-18.93,8.333-32.216c12.966-16.454,34.826-11.795,34.826-11.795V380.1s-13.632-5.272-23.563,6.5c-7.215,8.52-6.1,26.332-6.1,26.332Z" transform="translate(-552.123 -337.211)"/><path class="c" d="M302.475,479.081s5.591-14.617,18.371-12.168c10.943,2.077,14.723,12.168,14.723,12.168h11.156s-7.109-19.862-26.7-20.794c-23.457-1.118-29.021,20.9-29.021,20.9" transform="translate(-272.789 -403.2)"/><circle class="d" cx="10.224" cy="10.224" r="10.224" transform="translate(24.708 27.716)"/><circle class="b" cx="13.579" cy="13.579" r="13.579" transform="translate(113.248)"/><path class="d" d="M222.6,428.259s10.65-1.544,15.948,6.443c4.26,6.443,2.263,15.789,2.263,15.789h11.475s1.358-12.78-6.923-22.152c-9.026-10.224-22.764-9.132-22.764-9.132Z" transform="translate(-222.6 -374.53)"/></g><g transform="translate(0 100.626)"><path d="M143.92,612.475c0-1.6-.08-6.816-.133-7.508-.133-2.5-.825-2.582-2.236-2.582h-1.358c-.293,0-.293-.053-.293-.4V601c0-.266.053-.4.346-.4.559,0,2.609.133,6.71.133,1.384,0,3.94-.133,6.869-.133,3.089,0,5.831.293,7.348,1.172a6.007,6.007,0,0,1,3.3,5.831c0,2.822-1.731,5.591-6.257,7.082v.08c5.325,1.385,8.121,3.941,8.121,8.494,0,2.316-1.278,5.485-3.355,6.523-1.757.905-4.766,1.6-10.091,1.6-.4,0-1.491-.08-2.716-.133-1.251-.08-2.583-.133-3.381-.133-2.157,0-3.568.053-4.5.053-.905.053-1.385.08-1.677.08-.426,0-.479-.133-.479-.479v-.932c0-.266.053-.346.426-.346h1.491c1.278,0,1.491-.506,1.677-1.811.133-.985.213-6.656.213-10.171v-5.032Zm6.283,1.784c1.757.16,4.5-.08,5.751-1.2A6.705,6.705,0,0,0,158,608a5.481,5.481,0,0,0-1.757-4.34,8.114,8.114,0,0,0-4.047-1.544c-.905,0-1.837.053-1.89.719-.08.852-.133,4.606-.133,8.147v3.275Zm0,9.958c0,4.073.932,5.751,3.222,5.751,3.062,0,5.937-1.491,5.937-6.869,0-3.488-1.544-5.751-3.861-6.656a13.814,13.814,0,0,0-5.272-.719v8.493Z" transform="translate(-139.9 -599.508)"/><path d="M256.573,659.956c0,1.331.426,1.757,1.331,1.757h1.757c.266,0,.293.133.293.4v.852c0,.266-.053.4-.213.4-.266,0-2.236-.133-6.1-.133-3.3,0-5.112.133-5.378.133-.16,0-.266-.08-.266-.426v-.826c0-.293.08-.4.479-.4h1.251a1,1,0,0,0,1.118-1.038c.08-1.2.08-2.716.08-4.845v-3.568c0-1.837-.426-2.61-1.731-3.355l-.719-.426c-.266-.133-.346-.213-.346-.4v-.4c0-.16.08-.266.346-.346l6.017-2.609a2.173,2.173,0,0,1,.692-.16.544.544,0,0,1,.506.506l.4,3.355h.293c1.331-2.822,3.222-4.127,5.112-4.127a2.3,2.3,0,0,1,2.263,2.5,2.819,2.819,0,0,1-2.742,2.449,2.712,2.712,0,0,1-1.544-.4,2.017,2.017,0,0,0-1.065-.293,1.211,1.211,0,0,0-1.118.772,6.019,6.019,0,0,0-.719,2.529Z" transform="translate(-219.219 -631.573)"/><path d="M321.623,638.856c-.346,0-2.317-.133-6.044-.133-2.5,0-4.154.133-4.633.133-.213,0-.346-.08-.346-.426v-.879c0-.266.133-.346.426-.346h1.6c.479,0,.772-.16.825-.852.08-1.278.08-2.609.08-3.834l-.08-6.017c0-1.2-.266-2.05-2.05-2.716-.479-.16-.506-.346-.506-.612v-.479c0-.133.08-.213.479-.346l6.39-2.05a3.962,3.962,0,0,1,1.172-.266.388.388,0,0,1,.426.506c-.08.719-.08,3.434-.08,7.215v4.606c0,1.677,0,3.221.053,3.7.08.825.293,1.118.772,1.118h1.544c.346,0,.426.133.426.4v.825C322,638.723,321.916,638.856,321.623,638.856Zm-5.884-22.045a3.037,3.037,0,0,1-3.142-3.088,3.2,3.2,0,0,1,3.355-2.822,2.9,2.9,0,0,1,3.168,2.716A3.216,3.216,0,0,1,315.739,616.811Z" transform="translate(-262.98 -607.066)"/><path d="M372.747,601.4c-.053-1.2-.506-1.89-2.8-2.45-.266-.053-.293-.133-.293-.293v-.825c0-.16.08-.293.346-.346,2.529-.213,5.831-.479,7.269-.772a5.172,5.172,0,0,1,1.118-.213c.266,0,.426.293.4.772-.16,2.157-.266,8.387-.266,14.43v9.479c0,1.6,0,3.275.426,3.941.346.559.905.612,1.944.479.479-.053.639.08.692.293l.133.639a.368.368,0,0,1-.293.479l-6.443,1.624c-.266.08-.479-.053-.613-.4l-.692-2.157a8.4,8.4,0,0,1-5.751,2.609c-2.236,0-3.088-.16-5.112-2.05a7.526,7.526,0,0,1-2.716-6.1c0-3.434.612-5.671,3.009-8.333a8.017,8.017,0,0,1,6.363-2.742,10.829,10.829,0,0,1,3.488.559Zm.133,13.792a4.493,4.493,0,0,0-.346-2.05,3.944,3.944,0,0,0-3.275-1.943,2.635,2.635,0,0,0-2.237,1.2,7.646,7.646,0,0,0-1.384,4.925c0,5.059,2.183,8.6,4.846,8.6a2.478,2.478,0,0,0,2.05-.852,3.179,3.179,0,0,0,.426-2.05Z" transform="translate(-298.522 -596.5)"/><path d="M445.2,674.468a3.581,3.581,0,0,1-2.1-3.355c0-2.157,2.4-3.7,4.42-4.5V666.4c-1.97-.613-2.955-1.944-2.955-3.435,0-2.5,2.4-3.861,3.834-4.553v-.133a7.015,7.015,0,0,1-3.781-6.523c0-2.8,2.236-6.257,8.334-6.257A7.892,7.892,0,0,1,459,647.9a6.666,6.666,0,0,1,3.781-1.491,2.1,2.1,0,0,1,2.37,2.237,1.924,1.924,0,0,1-1.89,1.837,1.394,1.394,0,0,1-1.331-.719,1.506,1.506,0,0,0-1.2-.639,1.33,1.33,0,0,0-.825.4,6.45,6.45,0,0,1,.506,2.8,6.125,6.125,0,0,1-1.944,4.633,8.729,8.729,0,0,1-5.8,2.05,17.536,17.536,0,0,1-2.529-.133c-.559.346-1.6,1.118-1.6,1.97,0,1.491,1.251,1.624,5.884,1.491,2.929-.08,5.112.08,7.215,1.731a5.307,5.307,0,0,1,2.1,4.34,6.076,6.076,0,0,1-2.5,4.766,15.222,15.222,0,0,1-9.186,2.662C450.023,675.8,446.881,675.453,445.2,674.468Zm13.951-3.994c0-2.37-1.677-3.648-5.591-3.488l-3.728.16a3.044,3.044,0,0,0-2.157,2.929A3.774,3.774,0,0,0,449.17,673a6.765,6.765,0,0,0,4.34,1.118C456.359,674.122,459.155,672.6,459.155,670.474Zm-8.547-21.992c-.612.852-.852,2.822-.852,4.766a5.826,5.826,0,0,0,.932,3.275,2.294,2.294,0,0,0,1.97.852c1.89,0,2.529-2.876,2.529-6.177a6.368,6.368,0,0,0-.4-2.875,2.089,2.089,0,0,0-2.1-1.2C451.78,647.1,451.221,647.63,450.608,648.482Z" transform="translate(-358.302 -632.454)"/><path d="M532.565,653.408v1.171c0,4.473,2.53,6.656,5.671,6.656a5.421,5.421,0,0,0,4.686-2.37.254.254,0,0,1,.426-.133l.719.4c.16.08.293.293-.08,1.038a8.946,8.946,0,0,1-7.588,4.553c-2.742,0-5.032-.479-6.443-2.024A9.364,9.364,0,0,1,527,655.325a10.21,10.21,0,0,1,1.944-6.31c1.544-2.263,4.154-3.515,7.482-3.515,6.949,0,7.349,6.656,7.349,7.348,0,.559-.4.612-1.331.612h-9.878Zm4.18-1.625c.932,0,1.385-.213,1.385-.852,0-1.89-.772-3.728-2.1-3.728-2.024,0-3.089,1.6-3.382,4.606h4.1Z" transform="translate(-418.866 -632.454)"/><path d="M610.791,617.867c0,.719,0,10.011.133,11.715h2.449c2.024,0,3.941,0,6.257-.213s5.245-5.378,5.884-6.949c.133-.266.267-.4.506-.266l.852.346c.133.08.133.133.08.4-.133.293-1.837,7.375-2.1,8.547-1.118-.08-13.472-.133-17.439-.133-4.26,0-5.8.133-6.363.133-.293,0-.346-.08-.346-.4v-1.065c0-.213.053-.293.293-.293h1.331c1.6,0,1.837-.612,1.837-1.065,0-.825.133-11.5.133-14.138v-2.4c0-2.742-.08-7.3-.133-7.987-.08-1.118-.293-1.544-1.278-1.544h-1.6c-.266,0-.293-.213-.293-.426v-1.038c0-.213.053-.293.293-.293.479,0,2.024.133,5.938.133,5.032,0,6.816-.133,7.215-.133.346,0,.4.133.4.426v.985c0,.213-.08.346-.426.346h-2.023c-1.331,0-1.491.426-1.491,1.6,0,.559-.133,7.056-.133,10.038v3.674Z" transform="translate(-471.683 -599.655)"/><path d="M716.679,650.426a3.333,3.333,0,0,0-.639-2.37,2.659,2.659,0,0,0-1.811-.506,3.753,3.753,0,0,0-2.263.692c-.639.426-.133,1.172-.133,2.529,0,1.464-1.065,2.45-2.8,2.45a1.676,1.676,0,0,1-1.837-1.544,4.046,4.046,0,0,1,1.2-3.009,12.621,12.621,0,0,1,8.254-3.168c2.742,0,3.488.426,4.393,1.252a4.646,4.646,0,0,1,1.2,3.647l.08,8.546c.053,2.237.16,2.929.985,2.929a1.6,1.6,0,0,0,1.251-.772c.16-.266.293-.293.426-.213l.612.346c.16.08.293.213.133.612a4.763,4.763,0,0,1-4.34,2.929,4.015,4.015,0,0,1-4.074-2.609H717.1a9.808,9.808,0,0,1-3.7,2.237,9.46,9.46,0,0,1-3.088.4c-1.491,0-2.822-1.624-2.822-3.941,0-1.89.905-3.86,3.7-5.245a42.3,42.3,0,0,0,5.538-2.822v-2.37Zm.027,3.994c-2.1,1.2-3.861,1.837-3.861,4.819,0,1.97.905,2.8,1.837,2.822a2.37,2.37,0,0,0,2.024-1.544Z" transform="translate(-548.675 -632.454)"/><path d="M777.907,628.79a.525.525,0,0,1-.506.08l-.613-.213c-.16-.053-.213-.133-.16-.346.133-.612.133-4.153.133-7.375V604.907c0-2.876-.559-3.381-1.89-3.781l-.613-.16c-.479-.133-.559-.213-.559-.346v-.506c0-.133.08-.293.479-.426a50.878,50.878,0,0,0,6.523-2.449c.719-.4,1.065-.639,1.491-.639s.506.293.506.719c0,.346-.293,5.245-.346,9.452l-.08,4.9a7.8,7.8,0,0,1,5.751-2.05,7.4,7.4,0,0,1,6.1,3.647,10,10,0,0,1,1.251,5.538c0,4.5-4.286,10.038-9.824,10.038a13.641,13.641,0,0,1-5.885-1.118Zm4.419-9.718c0,3.568-.053,5.165.506,6.257a2.833,2.833,0,0,0,2.5,1.837,3.656,3.656,0,0,0,3.568-2.237c.905-1.97.693-3.062.693-4.766,0-5.671-2.37-7.561-4.606-7.561a5.15,5.15,0,0,0-2.663.825Z" transform="translate(-595.385 -596.573)"/><path d="M874.345,662.2c1.2,0,3.355-.719,6.523-4.42.266-.293.426-.293.559-.213l.559.426c.16.133.213.213.08.426l-2.875,5.831a21.508,21.508,0,0,0-4.925-.426c-2.157-.08-4.34-.08-5.245-.08h-5.005c-.479,0-.692-.293-.16-1.118l9.958-15.416H870.8c-2.263,0-3.3.4-6.736,4.686a.331.331,0,0,1-.506.053l-.506-.346c-.133-.08-.16-.213-.08-.426l2.4-6.177a22.56,22.56,0,0,0,2.5.479,36.026,36.026,0,0,0,5.831.266h6.656c.426,0,.639.426.4.852l-10.224,15.629h3.807Z" transform="translate(-660.859 -632.087)"/></g></svg>